<svg id="flamula" xmlns="http://www.w3.org/2000/svg" xmlns:xlink="http://www.w3.org/1999/xlink" width="500" height="500" viewBox="0 0 500 500">
    
    <path stroke-width="6" stroke="#695041" fill="none" d="M90 96l158-78 162 78"/>
    <path d="M254 24c0 2-2 4-4 4s-4-2-4-4V13c0-2 2-4 4-4s4 2 4 4v11z" fill="#91A4A4"/>
    <path d="M258 8c0 4-4 8-8 8s-8-4-8-8 4-8 8-8 8 4 8 8z" fill="#5E6E66"/>
    <path d="M421 96c0 6-4 10-9 10H88c-5 0-9-4-9-10 0-5 4-9 9-9h324c5 0 9 4 9 9z" fill="#695041"/>
    

    <defs>
        
        <clipPath id="formato">
            <path d="m398,335l0,-225l-297,0l0,225c0,82 66,148 148,148c81,0 148,-66 149,-148z"/>
        </clipPath>
        

    </defs>

    
    <g id="borda1" fill="#000000"><path d="m411,338l0,-228l-322,0l0,228c0,89 72,161 161,161s161,-72 161,-161z"/></g>
    

    
    <g id="fundo" fill="#ffcb00">
        <rect x="131" y="83" width="41" height="27"/>
        <rect x="230" y="83" width="41" height="27"/>
        <rect x="328" y="83" width="41" height="27"/>
        <path d="m398,335l0,-225l-297,0l0,225c0,82 66,148 148,148c81,0 148,-66 149,-148z"/>
    </g>
    

    
    
  <g id="estampa1" fill="#0066ff" x="0" clip-path="url(#formato)">
      <rect x="178" width="145" height="500"></rect>
  </g>

    

    
    <g >
      
<g id="adorno" transform="scale(2) translate(64, 65)" data-nome="cerveja branca"> <path fill-rule="evenodd" clip-rule="evenodd" d="M26.5 18.499C30.5 16.999 34.5 19.999 34.5 19.999C34.5 19.999 38 16.499 41 14.499C44 12.499 44 12.499 47 12.499C50 12.499 56 16.999 56 16.999C56 16.999 58.5 13.4992 60.5 12.499C62.5 11.4988 64.5 10.499 69.5 12.499C74.5 14.499 76.5 20.499 77.5 20.999C78.5 21.499 85.5 16.999 90 18.499C94.5 19.999 95 23.999 95.5 29.499C96 34.999 91.5 37.499 89 38.499C86.5 39.499 85 39.999 83 39.499C81 38.999 79 36.999 77.5 37.499C76 37.999 69.5 44.999 66.5 45.499C63.5 45.999 63 45.499 59.5 43.999C56 42.499 56 34.999 54 34.499C52 33.999 46.5 39.499 42 39.499C37.5 39.499 36 37.499 33.5 37.499C31 37.499 26.5 39.499 24.5 39.499C22.5 39.499 20.5 38.499 18.5 37.499C16.5 36.499 16.5 26.999 18.5 23.999C20.5 20.999 22.5 19.999 26.5 18.499ZM24.5 99.5005C24.5 94.5005 24.5 43.999 24.5 43.999C24.5 43.999 30.5 42.0005 34 42.0005C37.5 42.0005 37.5 43.9995 42 43.999C46.5 43.9985 50.5 39.9995 52 40.499C53.5 40.9985 52.5 45.9995 56 47.999C59.5 49.9985 63.5 50.999 66.5 50.999C69.5 50.999 78.5 43.999 78.5 43.999C78.5 43.999 80.5 46.4995 83 46.499C85.5 46.4985 86 44.999 88 44.499C90 43.999 99.5 42.499 104.5 44.499C109.5 46.499 111 51.9995 112 55.499C113 58.9985 114 77.4975 112 81.499C110 85.5005 107 89.4975 102 91.499C97 93.5005 88 91.499 88 91.499C88 91.499 88 94.0005 88 99.5005C88 105 84.5 106.5 80 107.999C75.5 109.498 35 109 31.5 107.999C28 106.998 24.5 104.5 24.5 99.5005ZM88 83.499V50.999C88 50.999 97.5 49.9975 101 50.999C104.5 52.0005 103 51.9975 104.5 55.499C106 59.0005 105.5 73.9975 104.5 77.499C103.5 81.0005 103.5 81.9975 99.5 83.499C95.5 85.0005 88 83.499 88 83.499ZM41.5 56.499H37.5V98.499H41.5V56.499ZM53.5 56.499H57.5V98.499H53.5V56.499ZM73.5 56.499H69.5V98.499H73.5V56.499Z" fill="white"/> </g>

    </g>
    
</svg>
